<?xml version="1.0" encoding="UTF-8"?>
<svg version="1.1" xmlns="http://www.w3.org/2000/svg" width="450" height="150">
<path d="M0 0 C2.97 0 5.94 0 9 0 C9 23.1 9 46.2 9 70 C6.03 70 3.06 70 0 70 C-0.33 68.35 -0.66 66.7 -1 65 C-1.7425 65.61875 -2.485 66.2375 -3.25 66.875 C-9.81222523 71.9458104 -15.86729828 71.71115553 -24 71 C-29.95566253 69.52044862 -33.24790906 66.06014783 -36.7734375 61.1953125 C-40.86507016 53.87207188 -40.80558527 46.17457052 -40 38 C-37.88616196 30.56715556 -33.32200479 25.32488612 -27 21 C-23.57008462 19.85669487 -20.8013584 19.79618349 -17.1875 19.75 C-15.98480469 19.72421875 -14.78210938 19.6984375 -13.54296875 19.671875 C-7.98961492 20.18618781 -4.90448845 22.09551155 -1 26 C-0.67 17.42 -0.34 8.84 0 0 Z M-26 32 C-30.52062176 37.98676936 -31.67273367 42.66108722 -31 50 C-29.34115331 55.23846322 -27.13206613 58.39768594 -23 62 C-19.285392 63.857304 -15.05406882 63.44282906 -11 63 C-5.6376367 60.41812137 -2.40420196 56.62752173 -0.25 51.0625 C0.50610313 44.82464915 0.12666058 39.50338412 -3 34 C-5.72945187 31.05219199 -8.85814559 28.26130624 -12.953125 27.76171875 C-18.51311183 27.58205931 -21.6706614 28.17407286 -26 32 Z " fill="#FFFFFF" transform="translate(253,32)"/>
<path d="M0 0 C5.43889966 4.04939974 8.91136313 8.81887298 11.35546875 15.1328125 C11.75920476 18.46363458 11.60546875 21.8401108 11.60546875 25.1953125 C-1.59453125 25.5253125 -14.79453125 25.8553125 -28.39453125 26.1953125 C-25.40893758 33.20131429 -25.40893758 33.20131429 -20.39453125 38.1953125 C-15.34675911 39.87790321 -11.04389112 39.82968168 -6.14453125 37.9453125 C-3.33216521 36.33198701 -3.33216521 36.33198701 -1.39453125 33.9453125 C0.60546875 32.1953125 0.60546875 32.1953125 3.73046875 32.3828125 C6.60546875 33.1953125 6.60546875 33.1953125 8.60546875 34.1953125 C6.79880937 39.94377415 3.24016243 43.42322362 -1.83203125 46.5078125 C-8.49084696 49.57917551 -16.36543673 49.36731453 -23.30859375 47.34765625 C-30.33796837 44.215231 -34.70456814 39.4610125 -37.52734375 32.3359375 C-39.68658841 24.51597037 -39.36589588 16.36021118 -35.59765625 9.12890625 C-32.33791218 3.89003186 -28.74571785 -0.40995049 -22.6640625 -2.359375 C-15.14574095 -3.83457062 -6.68490567 -4.07650964 0 0 Z M-26.76953125 12.1953125 C-28.71205335 15.21286781 -28.71205335 15.21286781 -28.39453125 19.1953125 C-18.49453125 19.1953125 -8.59453125 19.1953125 1.60546875 19.1953125 C0.57827955 13.03217731 -0.14886944 11.44097431 -4.39453125 7.1953125 C-12.61737708 2.17024005 -21.13488444 5.0778639 -26.76953125 12.1953125 Z " fill="#FFFFFF" transform="translate(312.39453125,54.8046875)"/>
<path d="M0 0 C1.89510699 -0.08160748 3.79124504 -0.13946459 5.6875 -0.1875 C6.74324219 -0.22230469 7.79898437 -0.25710937 8.88671875 -0.29296875 C12.57393907 0.05400932 14.19549103 0.5681515 17 3 C21.14456487 10.79141999 20.40896423 19.08437493 20.3515625 27.70898438 C20.26473974 34.4230684 20.26473974 34.4230684 23.51953125 40.03125 C24.33808594 40.6809375 25.15664063 41.330625 26 42 C26.62296556 44.85567413 26.25085388 47.03992426 26 50 C25.360625 50.28875 24.72125 50.5775 24.0625 50.875 C21.84793921 51.82823451 21.84793921 51.82823451 21 54 C20.88149329 55.94949037 20.82093468 57.90263985 20.7890625 59.85546875 C20.74652344 61.62567383 20.74652344 61.62567383 20.703125 63.43164062 C20.65145091 65.91587267 20.60706154 68.40026798 20.5703125 70.88476562 C20.20493674 84.89844831 20.20493674 84.89844831 15.0625 89.875 C11.49106224 91.82305696 8.27994668 92.12176392 4.25 92.0625 C2.14625 92.0315625 2.14625 92.0315625 0 92 C0 89.03 0 86.06 0 83 C1.670625 82.5978125 1.670625 82.5978125 3.375 82.1875 C7.21840951 81.34190981 7.21840951 81.34190981 9 78 C9.33546978 75.37058071 9.33546978 75.37058071 9.34375 72.4140625 C9.37339844 71.31835938 9.40304687 70.22265625 9.43359375 69.09375 C9.45550781 67.9490625 9.47742188 66.804375 9.5 65.625 C9.54352142 63.36700623 9.59530565 61.10915319 9.65625 58.8515625 C9.67494141 57.84947754 9.69363281 56.84739258 9.71289062 55.81494141 C10.15355811 51.49445151 11.60625982 48.59061027 14 45 C13.2884375 44.38125 13.2884375 44.38125 12.5625 43.75 C9.59461118 40.42596453 9.87226173 36.5753941 9.82421875 32.28125 C9.80037109 31.18425781 9.77652344 30.08726563 9.75195312 28.95703125 C9.70898789 26.65253238 9.67773547 24.34778534 9.65820312 22.04296875 C9.63048828 20.94597656 9.60277344 19.84898438 9.57421875 18.71875 C9.55963623 17.71779297 9.54505371 16.71683594 9.5300293 15.68554688 C8.8621383 12.30148378 7.67436413 11.11528172 5 9 C2.35815459 8.20318682 2.35815459 8.20318682 0 8 C0 5.36 0 2.72 0 0 Z " fill="#FFFFFF" transform="translate(386,30)"/>
<path d="M0 0 C1.60294922 0.04060547 1.60294922 0.04060547 3.23828125 0.08203125 C4.04652344 0.11683594 4.85476562 0.15164062 5.6875 0.1875 C5.6875 2.8275 5.6875 5.4675 5.6875 8.1875 C5.12160156 8.38085938 4.55570313 8.57421875 3.97265625 8.7734375 C3.23917969 9.03382812 2.50570312 9.29421875 1.75 9.5625 C1.01910156 9.81773438 0.28820312 10.07296875 -0.46484375 10.3359375 C-2.49932116 11.04021413 -2.49932116 11.04021413 -3.3125 13.1875 C-3.41887257 15.06430761 -3.46792761 16.94450929 -3.48828125 18.82421875 C-3.51212891 19.95923828 -3.53597656 21.09425781 -3.56054688 22.26367188 C-3.6031639 24.6515169 -3.63460355 27.03959028 -3.65429688 29.42773438 C-3.81867811 36.19794753 -4.26610171 40.67115263 -8.3125 46.1875 C-7.6009375 46.80625 -7.6009375 46.80625 -6.875 47.4375 C-3.92347072 50.7432128 -4.15981837 54.66616615 -4.03125 58.94140625 C-3.99386719 60.04291016 -3.95648438 61.14441406 -3.91796875 62.27929688 C-3.84753766 64.59700161 -3.77722555 66.91470996 -3.70703125 69.23242188 C-3.66964844 70.33263672 -3.63226563 71.43285156 -3.59375 72.56640625 C-3.56345703 73.5726001 -3.53316406 74.57879395 -3.50195312 75.61547852 C-3.40970775 78.30534823 -3.40970775 78.30534823 -2.3125 81.1875 C-0.43862784 81.98962628 -0.43862784 81.98962628 1.75 82.375 C3.049375 82.643125 4.34875 82.91125 5.6875 83.1875 C5.6875 86.1575 5.6875 89.1275 5.6875 92.1875 C-0.31267049 92.3980323 -5.83392555 92.34661518 -11.125 89.0625 C-15.81975666 81.64972632 -14.63946625 71.50243064 -14.61523438 63.12304688 C-14.6024279 56.59731421 -14.6024279 56.59731421 -17.81640625 51.13671875 C-18.64011719 50.49347656 -19.46382812 49.85023437 -20.3125 49.1875 C-20.9375 45.6875 -20.9375 45.6875 -20.3125 42.1875 C-19.4875 41.54296875 -18.6625 40.8984375 -17.8125 40.234375 C-13.95790822 35.53659127 -14.64640222 30.83503084 -14.6875 24.9375 C-14.6875 9.340602 -14.6875 9.340602 -11.3125 3.1875 C-7.72131262 -0.02437969 -4.7093385 -0.15525292 0 0 Z " fill="#FFFFFF" transform="translate(57.3125,29.8125)"/>
<path d="M0 0 C2.92164431 1.84988534 5.28844083 4.21102588 6.9296875 7.234375 C7.87014168 12.3917174 8.06425478 17.35751989 8.02734375 22.57421875 C8.0259288 23.34117569 8.02451385 24.10813263 8.02305603 24.89833069 C8.01750516 27.3228869 8.00496213 29.74734719 7.9921875 32.171875 C7.98716614 33.82617053 7.98260435 35.48046753 7.97851562 37.13476562 C7.96755188 41.16800512 7.95032174 45.20117386 7.9296875 49.234375 C4.9596875 49.234375 1.9896875 49.234375 -1.0703125 49.234375 C-1.09013184 48.30165771 -1.10995117 47.36894043 -1.13037109 46.40795898 C-1.20884293 42.92073135 -1.29554764 39.43390438 -1.38769531 35.94702148 C-1.42578739 34.44286877 -1.46067342 32.93863108 -1.4921875 31.43432617 C-1.53827145 29.26189977 -1.59618904 27.09004845 -1.65625 24.91796875 C-1.70338135 22.96201782 -1.70338135 22.96201782 -1.75146484 20.96655273 C-2.16079097 16.17530581 -2.57866407 11.72602343 -6.0703125 8.234375 C-10.96417633 7.74498862 -13.14624318 7.73033719 -17.5078125 10.109375 C-20.10905769 11.97601541 -20.10905769 11.97601541 -21.0703125 14.234375 C-21.22692133 16.85817813 -21.3286033 19.45962352 -21.38671875 22.0859375 C-21.40749985 22.85996918 -21.42828094 23.63400085 -21.44969177 24.43148804 C-21.51514698 26.90735892 -21.57405337 29.38333702 -21.6328125 31.859375 C-21.67600157 33.53646948 -21.71961598 35.21355307 -21.76367188 36.890625 C-21.87082421 41.00509808 -21.97210295 45.11967914 -22.0703125 49.234375 C-25.0403125 49.234375 -28.0103125 49.234375 -31.0703125 49.234375 C-31.0703125 33.064375 -31.0703125 16.894375 -31.0703125 0.234375 C-28.1003125 0.234375 -25.1303125 0.234375 -22.0703125 0.234375 C-21.7403125 1.224375 -21.4103125 2.214375 -21.0703125 3.234375 C-20.3484375 2.574375 -19.6265625 1.914375 -18.8828125 1.234375 C-13.67012355 -2.24904482 -5.75719546 -2.12907606 0 0 Z " fill="#FFFFFF" transform="translate(169.0703125,52.765625)"/>
<path d="M0 0 C2.97 0 5.94 0 9 0 C13.88229774 11.12600543 17.9057047 22.56710385 22 34 C23.23071518 30.93812009 24.4595188 27.87547739 25.6875 24.8125 C26.05109619 23.90588623 26.41469238 22.99927246 26.78930664 22.06518555 C29.29042033 15.81378744 31.72650455 9.54318957 34.08984375 3.23828125 C35 1 35 1 36 0 C39.00003445 -0.14177857 41.99757235 -0.04228771 45 0 C42.4427496 9.15874496 39.14619897 18.02374469 35.84716797 26.93481445 C34.86637758 29.58580566 33.89189427 32.23905824 32.91796875 34.89257812 C32.29724644 36.57565787 31.67616597 38.25860557 31.0546875 39.94140625 C30.76302704 40.73607803 30.47136658 41.53074982 30.17086792 42.34950256 C28.11508672 47.88491328 28.11508672 47.88491328 27 49 C25.31391034 49.07205511 23.62499341 49.08386068 21.9375 49.0625 C21.01839844 49.05347656 20.09929687 49.04445312 19.15234375 49.03515625 C18.44207031 49.02355469 17.73179687 49.01195312 17 49 C16.59160889 47.89076172 16.18321777 46.78152344 15.76245117 45.63867188 C14.23632414 41.49372665 12.70988257 37.34889731 11.18334961 33.20410156 C10.52473613 31.41572134 9.86620611 29.62731039 9.20776367 27.83886719 C8.25722238 25.25707903 7.30637351 22.67540431 6.35546875 20.09375 C6.0647197 19.30383667 5.77397064 18.51392334 5.47441101 17.70007324 C5.19434708 16.93988892 4.91428314 16.17970459 4.62573242 15.39648438 C4.22274429 14.29856567 4.22274429 14.29856567 3.81161499 13.1784668 C3.26130819 11.70138086 2.69838973 10.22894377 2.12417603 8.76098633 C0 3.30506061 0 3.30506061 0 0 Z " fill="#FFFFFF" transform="translate(327,53)"/>
<path d="M0 0 C1.21236328 0.02707031 1.21236328 0.02707031 2.44921875 0.0546875 C3.37154297 0.08949219 3.37154297 0.08949219 4.3125 0.125 C4.3125 2.765 4.3125 5.405 4.3125 8.125 C2.3325 8.455 0.3525 8.785 -1.6875 9.125 C-2.0175 13.085 -2.3475 17.045 -2.6875 21.125 C-0.3775 21.125 1.9325 21.125 4.3125 21.125 C4.3125 23.765 4.3125 26.405 4.3125 29.125 C2.0025 29.125 -0.3075 29.125 -2.6875 29.125 C-2.6875 42.655 -2.6875 56.185 -2.6875 70.125 C-5.6575 70.125 -8.6275 70.125 -11.6875 70.125 C-11.6875 56.595 -11.6875 43.065 -11.6875 29.125 C-13.9975 29.125 -16.3075 29.125 -18.6875 29.125 C-18.6875 26.485 -18.6875 23.845 -18.6875 21.125 C-16.3775 21.125 -14.0675 21.125 -11.6875 21.125 C-11.73390625 20.25617187 -11.7803125 19.38734375 -11.828125 18.4921875 C-12.1597547 7.90372482 -12.1597547 7.90372482 -9.875 4.4375 C-6.61084308 0.98681983 -4.66447574 -0.1352022 0 0 Z " fill="#FFFFFF" transform="translate(96.6875,31.875)"/>
<path d="M0 0 C2.97 0 5.94 0 9 0 C9 16.17 9 32.34 9 49 C6.03 49 3.06 49 0 49 C0 32.83 0 16.66 0 0 Z " fill="#FFFFFF" transform="translate(113,53)"/>
<path d="M0 0 C3.5625 0.4375 3.5625 0.4375 5.625 2.625 C6.5625 5.4375 6.5625 5.4375 5.8125 8.1875 C4.5625 10.4375 4.5625 10.4375 3.5625 11.4375 C0.125 11.625 0.125 11.625 -3.4375 11.4375 C-5.4375 9.4375 -5.4375 9.4375 -5.6875 5.9375 C-5.34919102 1.20117423 -4.69389596 0.59740494 0 0 Z " fill="#FFFFFF" transform="translate(196.4375,91.5625)"/>
<path d="M0 0 C2 2 2 2 2.25 5 C2 8 2 8 0 10 C-3.5 10.3125 -3.5 10.3125 -7 10 C-9.14762184 6.77856724 -9.561068 5.7404533 -9 2 C-6.07557433 -1.24936186 -4.04996841 -1.38551551 0 0 Z " fill="#FFFFFF" transform="translate(121,35)"/>
</svg>

